<svg width="83" height="33" viewBox="0 0 83 33" fill="none" xmlns="http://www.w3.org/2000/svg">
<g clip-path="url(#clip0_22_8)">
<g clip-path="url(#clip1_22_8)">
<path d="M3.88925 5.60585H0V27.5275H3.88925V5.60585Z" fill="white"/>
<path d="M7.02124 11.0954H10.588V12.6077C11.3477 11.1245 13.3353 10.5622 14.8571 10.5622C16.5222 10.5622 18.161 11.2747 19.1835 12.6077C19.3292 12.7556 19.4463 12.9349 19.5633 13.1118C19.6804 12.9034 19.8261 12.7265 19.9719 12.6077C21.1114 11.2141 22.9533 10.5622 24.7092 10.5622C26.6108 10.5622 28.3643 11.1245 29.6496 12.6077C31.1403 14.2388 31.3147 16.168 31.3147 18.3032V27.5275H27.4255V18.7758C27.4255 17.8258 27.3968 16.4613 26.8402 15.6324C26.3432 14.8617 25.3494 14.4157 24.413 14.4157C23.3308 14.4157 22.3083 14.8908 21.723 15.8384C21.0517 16.9072 21.109 18.5092 21.109 19.6944V27.5251H17.2245V18.7758C17.2245 17.707 17.2245 16.6988 16.6106 15.7512C16.0539 14.8908 15.0601 14.4157 14.0663 14.4157C10.9678 14.4157 10.9081 17.3823 10.9081 19.6968V27.5275H7.02124V11.0954Z" fill="white"/>
<path d="M34.2078 5.60585H38.097V11.0954H41.4607V14.5951H38.097V27.5275H34.2078V5.60585Z" fill="white"/>
<path d="M74.6601 20.6662C74.0724 20.6662 73.511 20.4651 73.155 20.1258C73.0117 19.9852 69.6934 16.7448 68.4225 15.533C67.9805 15.1113 67.7512 14.5611 67.7751 13.9843C67.799 13.4027 68.0785 12.8646 68.5658 12.4671L75.0758 7.69502C75.7423 7.23696 76.4279 6.9946 77.0586 6.9946C78.1217 6.9946 79.0056 7.6926 79.2588 8.72991L80.9216 15.7487C81.0984 16.4928 80.6827 17.4792 80.0305 17.8597L75.6706 20.4166C75.3959 20.579 75.0375 20.6662 74.6601 20.6662ZM82.4099 15.3852L80.7472 8.36152C80.3219 6.61409 78.8384 5.44106 77.0562 5.44106C76.1126 5.44106 75.1259 5.77794 74.2014 6.41777L67.6485 11.2214L67.6269 11.2384C66.7765 11.9218 66.2843 12.8719 66.2413 13.914C66.1983 14.9368 66.6092 15.9402 67.3737 16.6673C68.659 17.8936 72.0633 21.2188 72.0967 21.2528L72.1015 21.2576C72.7441 21.8708 73.6782 22.2222 74.6601 22.2222C75.3123 22.2222 75.9262 22.0647 76.4351 21.7642L80.795 19.2072C82.0372 18.4801 82.7467 16.8006 82.4099 15.3852Z" fill="#B5002F"/>
<path d="M70.403 13.6062C70.1904 13.6062 69.9897 13.5747 69.8034 13.5141L65.8688 12.2175C64.8988 11.8976 64.046 10.71 64.046 9.67268V3.57727C64.046 2.92774 64.2132 2.39696 64.5262 2.03827C64.8057 1.7232 65.1975 1.55597 65.6657 1.55597C65.981 1.55597 66.3227 1.6311 66.6786 1.77651L73.5039 4.5758C74.2111 4.86663 74.7318 5.39983 74.9684 6.0736C75.2049 6.74979 75.1308 7.49626 74.7629 8.17488L72.4241 12.4647C72.0586 13.136 71.2272 13.6062 70.403 13.6062ZM76.4137 5.55252C76.0291 4.45219 75.2001 3.59181 74.0773 3.13132L67.2544 0.332036C66.7145 0.111487 66.1793 0 65.6681 0C63.8119 0 62.5146 1.47114 62.5146 3.57727V9.67268C62.5146 11.3959 63.7808 13.1651 65.3957 13.6959L69.3328 14.9925C69.672 15.104 70.0327 15.1622 70.4054 15.1622C71.7839 15.1622 73.136 14.3793 73.7691 13.216L76.1055 8.9262C76.6908 7.85254 76.8007 6.65527 76.4137 5.55252Z" fill="#E00027"/>
<path d="M56.6856 12.4235L67.3762 8.38337C67.6032 8.30096 67.8253 8.25976 68.0379 8.25976C68.769 8.25976 69.3017 8.73964 69.4618 9.53943L70.1259 12.8404L70.9334 16.8636C70.9836 17.1181 70.9621 17.3386 70.8689 17.4526C70.7829 17.5592 70.6228 17.581 70.5034 17.581C70.4245 17.581 70.3409 17.5713 70.2501 17.5519L57.29 14.8205L57.2828 14.8181L57.2756 14.8157C56.2938 14.6242 55.6559 14.1686 55.6129 13.6305C55.5771 13.1676 56.0071 12.6804 56.6856 12.4235ZM72.4337 16.5534L70.9621 9.22921C70.6587 7.71929 69.4833 6.7038 68.0356 6.7038C67.6438 6.7038 67.2472 6.7765 66.8506 6.9195L56.148 10.9645C54.7983 11.4759 53.9884 12.5738 54.0864 13.7614C54.1365 14.3794 54.4304 14.9465 54.9321 15.3998C55.4409 15.8578 56.1289 16.1753 56.9818 16.345L69.9372 19.0764C70.1283 19.1176 70.3194 19.137 70.501 19.137C71.1388 19.137 71.6907 18.8898 72.0538 18.4366C72.448 17.9518 72.5818 17.2829 72.4337 16.5534Z" fill="#EC6D1F"/>
<path d="M48.5653 15.9595C47.8223 16.1655 47.3302 16.2091 47.1056 15.9353C46.9479 15.7414 46.9718 15.3342 47.3564 14.5199L51.7187 5.3295C52.0484 4.63877 52.5118 4.2413 52.9896 4.2413C53.3982 4.2413 53.8353 4.51759 54.2247 5.01928C55.51 6.67946 59.0457 11.2165 59.0791 11.2601C59.3897 11.6624 59.5044 12.0623 59.4016 12.3919C59.2989 12.7191 58.9788 12.9785 58.4986 13.1239L48.5653 15.9595ZM60.2832 10.2931C60.2473 10.247 56.7141 5.71243 55.4312 4.05468C54.7455 3.17006 53.8807 2.68291 52.992 2.68291C51.9003 2.68291 50.9327 3.4003 50.3379 4.65331L45.9756 13.8437C45.2661 15.3366 45.493 16.2552 45.806 16.7617C46.1667 17.3458 46.8285 17.6657 47.6646 17.6657C48.0684 17.6657 48.5151 17.593 48.9929 17.45L58.9167 14.6144L58.9238 14.612C59.8938 14.3211 60.6009 13.6813 60.8589 12.8597C61.1193 12.0381 60.9091 11.1026 60.2832 10.2931Z" fill="#F08400"/>
</g>
</g>
<defs>
<clipPath id="clip0_22_8">
<rect width="82.5" height="33" fill="white"/>
</clipPath>
<clipPath id="clip1_22_8">
<rect width="82.4936" height="27.5275" fill="white"/>
</clipPath>
</defs>
</svg>
