<svg width="51" height="34" viewBox="0 0 51 34" fill="none" xmlns="http://www.w3.org/2000/svg">
<path d="M40.4 7.0498C40.4 4.5498 40.4 2.7498 40.4 2.5498C40.4 1.5498 39.1 1.5498 39.1 1.5498H20.7H2.3C2.3 1.5498 1 1.5498 1 2.5498C1 3.5498 1 27.1498 1 27.1498C1 27.1498 1.2 28.1498 2 28.1498C2.8 28.1498 20.6 28.1498 20.6 28.1498C20.6 28.1498 29.6 28.1498 35.1 28.1498" stroke="#C8102E" stroke-width="1.5" stroke-miterlimit="10" stroke-linecap="round" stroke-linejoin="round"/>
<path d="M25 28.1494H20.8H16.5C16.5 32.0494 14 32.4494 14 32.4494H20.7H27.5C27.5 32.4494 25 32.0494 25 28.1494Z" stroke="#C8102E" stroke-width="1.5" stroke-miterlimit="10" stroke-linecap="round" stroke-linejoin="round"/>
<path d="M49.3998 7.0498H35.2998V32.4498H49.3998V7.0498Z" stroke="#C8102E" stroke-width="1.5" stroke-miterlimit="10" stroke-linecap="round" stroke-linejoin="round"/>
</svg>
