<svg width="53" height="26" viewBox="0 0 53 26" fill="none" xmlns="http://www.w3.org/2000/svg">
<path d="M1 2.87598H12.3883" stroke="#C8102E" stroke-width="1.5" stroke-miterlimit="10" stroke-linecap="round" stroke-linejoin="round"/>
<path d="M6.76074 1V6.09126" stroke="#C8102E" stroke-width="1.5" stroke-miterlimit="10" stroke-linecap="round" stroke-linejoin="round"/>
<path d="M6.76067 13.4598C5.28688 13.4598 4.08105 12.2539 4.08105 10.7801V6.09082H9.44028V10.7801C9.3063 12.2539 8.23445 13.4598 6.76067 13.4598Z" stroke="#C8102E" stroke-width="1.5" stroke-miterlimit="10" stroke-linecap="round" stroke-linejoin="round"/>
<path d="M9.30664 9.70801H26.3222" stroke="#C8102E" stroke-width="1.5" stroke-miterlimit="10" stroke-linecap="round" stroke-linejoin="round"/>
<path d="M51.644 2.87598H40.3896" stroke="#C8102E" stroke-width="1.5" stroke-miterlimit="10" stroke-linecap="round" stroke-linejoin="round"/>
<path d="M46.0166 1V6.09126" stroke="#C8102E" stroke-width="1.5" stroke-miterlimit="10" stroke-linecap="round" stroke-linejoin="round"/>
<path d="M46.0175 13.4598C47.4913 13.4598 48.6971 12.2539 48.6971 10.7801V6.09082H43.3379V10.7801C43.3379 12.2539 44.5437 13.4598 46.0175 13.4598Z" stroke="#C8102E" stroke-width="1.5" stroke-miterlimit="10" stroke-linecap="round" stroke-linejoin="round"/>
<path d="M43.3378 9.70801H26.3223" stroke="#C8102E" stroke-width="1.5" stroke-miterlimit="10" stroke-linecap="round" stroke-linejoin="round"/>
<path d="M35.8348 9.70801H16.8096V19.0867H35.8348V9.70801Z" stroke="#C8102E" stroke-width="1.5" stroke-miterlimit="10" stroke-linecap="round" stroke-linejoin="round"/>
<path d="M16.8091 19.0869L13.7275 24.9821" stroke="#C8102E" stroke-width="1.5" stroke-miterlimit="10" stroke-linecap="round" stroke-linejoin="round"/>
<path d="M35.834 19.0869L38.9155 24.9821" stroke="#C8102E" stroke-width="1.5" stroke-miterlimit="10" stroke-linecap="round" stroke-linejoin="round"/>
</svg>
