<svg width="38" height="30" viewBox="0 0 38 30" fill="none" xmlns="http://www.w3.org/2000/svg">
<path d="M8.03719 1C4.09636 1 1 4.26904 1 8.1066V8.24873V8.39086V26.868C1 28.0051 1.98521 29 3.11116 29C4.23711 29 5.22231 28.0051 5.22231 26.868V14.6447C6.06678 15.0711 7.05198 15.2132 8.03719 15.2132C11.978 15.2132 15.0744 11.9442 15.0744 8.1066C15.0744 4.26904 11.978 1 8.03719 1Z" stroke="#C8102E" stroke-width="1.5" stroke-miterlimit="10" stroke-linecap="round" stroke-linejoin="round"/>
<path d="M30.1339 1C34.0747 1 37.1711 4.26904 37.1711 8.1066V8.24873V8.39086V26.868C37.1711 28.0051 36.1859 29 35.0599 29C33.934 29 32.9487 28.0051 32.9487 26.868V14.6447C32.1043 15.0711 31.1191 15.2132 30.1339 15.2132C26.193 15.2132 23.0967 11.9442 23.0967 8.1066C23.0967 4.26904 26.193 1 30.1339 1Z" stroke="#C8102E" stroke-width="1.5" stroke-miterlimit="10" stroke-linecap="round" stroke-linejoin="round"/>
</svg>
